<?xml version="1.0" encoding="utf-8"?>
<svg version="1.1" xmlns:xlink="http://www.w3.org/1999/xlink" width="26px" height="24px" xmlns="http://www.w3.org/2000/svg">
  <g transform="matrix(1 0 0 1 -326 -61 )">
    <path d="M 25.6767955801105 23.75  C 26.0359116022099 23.4166666666667  26.0359116022099 23  25.6767955801105 22.75  L 19.2127071823204 16.8333333333333  C 20.9185082872928 15.0833333333333  21.9060773480663 12.75  21.9060773480663 10.1666666666667  C 21.9060773480663 4.5  16.9682320441989 0  10.9530386740331 0  C 4.84806629834254 0  0 4.58333333333333  0 10.1666666666667  C 0 15.8333333333333  4.9378453038674 20.3333333333333  10.9530386740331 20.3333333333333  C 13.7361878453039 20.3333333333333  16.25 19.4166666666667  18.1353591160221 17.8333333333333  L 24.5994475138122 23.75  C 24.8687845303867 24  25.4074585635359 24  25.6767955801105 23.75  Z M 11.042817679558 18.9166666666667  C 5.74585635359116 19  1.43646408839779 15  1.43646408839779 10.1666666666667  C 1.43646408839779 5.33333333333333  5.6560773480663 1.33333333333334  10.9530386740331 1.33333333333334  C 16.25 1.33333333333334  20.4696132596685 5.25  20.4696132596685 10.1666666666667  C 20.4696132596685 12.5  19.482044198895 14.6666666666667  17.8660220994475 16.25  C 17.7762430939227 16.25  17.7762430939227 16.3333333333333  17.6864640883978 16.3333333333333  C 17.5966850828729 16.4166666666667  17.5966850828729 16.4166666666667  17.5966850828729 16.5  C 15.8908839779006 18  13.5566298342541 18.9166666666667  11.042817679558 18.9166666666667  Z " fill-rule="nonzero" fill="#ffffff" stroke="none" transform="matrix(1 0 0 1 326 61 )" />
  </g>
</svg>