<?xml version="1.0" encoding="utf-8"?>
<svg version="1.1" xmlns:xlink="http://www.w3.org/1999/xlink" width="54px" height="54px" xmlns="http://www.w3.org/2000/svg">
  <defs>
    <mask fill="white" id="clip140">
      <path d="M 63 332  C 57.45 332  53 327.55  53 322  L 53 288  C 53 282.45  57.45 278  63 278  L 97 278  C 102.55 278  107 282.45  107 288  L 107 322  C 107 327.55  102.55 332  97 332  " fill-rule="evenodd" />
    </mask>
  </defs>
  <g transform="matrix(1 0 0 1 -53 -278 )">
    <path d="M 53 278  L 107 278  L 107 332  L 53 332  L 53 278  " fill-rule="nonzero" fill="#cccccc" stroke="none" mask="url(#clip140)" />
    <path d="M 57 282  L 103 282  L 103 328  L 57 328  L 57 282  " fill-rule="nonzero" fill="#ffffff" stroke="none" mask="url(#clip140)" />
    <path d="M 85.13 294.2  C 82.862 294.2  81.08 292.418  81.08 290.15  C 81.08 287.882  82.862 286.1  85.13 286.1  C 87.398 286.1  89.18 287.882  89.18 290.15  C 89.18 292.418  87.398 294.2  85.13 294.2  " fill-rule="nonzero" fill="#cccccc" stroke="none" mask="url(#clip140)" />
    <path d="M 59 327  L 59 303.35  L 69.75 292.6  L 84.8 301.2  L 93.4 299.05  L 102 301.2  L 102 327  L 59 327  " fill-rule="nonzero" fill="#169bd5" stroke="none" mask="url(#clip140)" />
  </g>
</svg>