<?xml version="1.0" encoding="utf-8"?>
<svg version="1.1" xmlns:xlink="http://www.w3.org/1999/xlink" width="88px" height="22px" xmlns="http://www.w3.org/2000/svg">
  <defs>
    <mask fill="white" id="clip141">
      <path d="M 15.125 22  C 6.65500000000009 22  0 17.16  0 11  C 0 4.83999999999997  6.65500000000009 0  15.125 0  L 28.1053549624978 0  L 40.3492063492064 0  L 46.4880952380953 0  L 60.3968253968254 0  L 72.875 0  C 81.345 0  88 4.83999999999997  88 11  C 88 17.16  81.345 22  72.875 22  L 64.1587301587301 22  L 15.125 22  Z " fill-rule="evenodd" />
    </mask>
  </defs>
  <g transform="matrix(1 0 0 1 -276 -426 )">
    <path d="M 15.125 22  C 6.65500000000009 22  0 17.16  0 11  C 0 4.83999999999997  6.65500000000009 0  15.125 0  L 28.1053549624978 0  L 40.3492063492064 0  L 46.4880952380953 0  L 60.3968253968254 0  L 72.875 0  C 81.345 0  88 4.83999999999997  88 11  C 88 17.16  81.345 22  72.875 22  L 64.1587301587301 22  L 15.125 22  Z " fill-rule="nonzero" fill="#ffffff" stroke="none" fill-opacity="0.0235294117647059" transform="matrix(1 0 0 1 276 426 )" />
    <path d="M 15.125 22  C 6.65500000000009 22  0 17.16  0 11  C 0 4.83999999999997  6.65500000000009 0  15.125 0  L 28.1053549624978 0  L 40.3492063492064 0  L 46.4880952380953 0  L 60.3968253968254 0  L 72.875 0  C 81.345 0  88 4.83999999999997  88 11  C 88 17.16  81.345 22  72.875 22  L 64.1587301587301 22  L 15.125 22  Z " stroke-width="2" stroke="#ffffff" fill="none" transform="matrix(1 0 0 1 276 426 )" mask="url(#clip141)" />
  </g>
</svg>