<?xml version="1.0" encoding="utf-8"?>
<svg version="1.1" xmlns:xlink="http://www.w3.org/1999/xlink" width="30px" height="30px" xmlns="http://www.w3.org/2000/svg">
  <g transform="matrix(1 0 0 1 -345 -56 )">
    <path d="M 360 56  C 368.4 56  375 62.6  375 71  C 375 79.4  368.4 86  360 86  C 351.6 86  345 79.4  345 71  C 345 62.6  351.6 56  360 56  Z " fill-rule="nonzero" fill="#d9001b" stroke="none" />
    <path d="M 360 56.5  C 368.12 56.5  374.5 62.88  374.5 71  C 374.5 79.12  368.12 85.5  360 85.5  C 351.88 85.5  345.5 79.12  345.5 71  C 345.5 62.88  351.88 56.5  360 56.5  Z " stroke-width="1" stroke="#797979" fill="none" />
  </g>
</svg>