<?xml version="1.0" encoding="utf-8"?>
<svg version="1.1" xmlns:xlink="http://www.w3.org/1999/xlink" width="14px" height="12px" xmlns="http://www.w3.org/2000/svg">
  <g transform="matrix(1 0 0 1 -107 -63 )">
    <path d="M 13.8259668508287 11.875  C 14.0193370165746 11.7083333333333  14.0193370165746 11.5  13.8259668508287 11.375  L 10.3453038674033 8.41666666666667  C 11.2638121546961 7.54166666666667  11.7955801104972 6.375  11.7955801104972 5.08333333333333  C 11.7955801104972 2.25  9.13674033149171 0  5.89779005524862 0  C 2.61049723756906 0  0 2.29166666666667  0 5.08333333333333  C 0 7.91666666666667  2.65883977900553 10.1666666666667  5.89779005524862 10.1666666666667  C 7.39640883977901 10.1666666666667  8.75 9.70833333333333  9.76519337016575 8.91666666666667  L 13.2458563535912 11.875  C 13.3908839779006 12  13.6809392265193 12  13.8259668508287 11.875  Z M 5.94613259668508 9.45833333333333  C 3.0939226519337 9.5  0.773480662983425 7.5  0.773480662983425 5.08333333333333  C 0.773480662983425 2.66666666666667  3.04558011049724 0.666666666666668  5.89779005524862 0.666666666666668  C 8.75 0.666666666666668  11.0220994475138 2.625  11.0220994475138 5.08333333333333  C 11.0220994475138 6.25  10.4903314917127 7.33333333333334  9.62016574585635 8.125  C 9.57182320441989 8.125  9.57182320441989 8.16666666666667  9.52348066298343 8.16666666666667  C 9.47513812154696 8.20833333333334  9.47513812154696 8.20833333333334  9.47513812154696 8.25  C 8.55662983425414 9  7.29972375690608 9.45833333333333  5.94613259668508 9.45833333333333  Z " fill-rule="nonzero" fill="#d7d7d7" stroke="none" transform="matrix(1 0 0 1 107 63 )" />
  </g>
</svg>