<?xml version="1.0" encoding="utf-8"?>
<svg version="1.1" xmlns:xlink="http://www.w3.org/1999/xlink" width="21px" height="22px" xmlns="http://www.w3.org/2000/svg">
  <g transform="matrix(1 0 0 1 -27 -351 )">
    <path d="M 2.16632313829787 13.7854838709677  C 0.808054054504017 12.314525858707  0.0263081322488847 10.160194925445  0.0279255319148936 7.8925  C 0.0279255302808052 3.61180201030812  2.75882483065632 0.141756079016836  6.12755983879144 0.141756079016836  C 7.77459114112339 0.141756079016836  9.35162165489738 0.988098488118867  10.5 2.4883064516129  C 11.6483783451026 0.988098488118868  13.2254088588766 0.141756079016834  14.8724401612086 0.141756079016834  C 18.2411751693437 0.141756079016834  20.9720744697192 3.61180201030812  20.9720744697192 7.89232059514587  C 20.9768140014732 10.3476346306718  20.0611238178002 12.6588849339161  18.50625 14.1163709677419  L 11.6037566489362 21.3435483870968  C 10.8109867041488 22.1738811684158  9.66127491424977 22.1509607732541  8.88939494680851 21.289435483871  L 2.16632313829787 13.7854838709677  Z " fill-rule="nonzero" fill="#ffffff" stroke="none" transform="matrix(1 0 0 1 27 351 )" />
  </g>
</svg>