<?xml version="1.0" encoding="utf-8"?>
<svg version="1.1" xmlns:xlink="http://www.w3.org/1999/xlink" width="13px" height="18px" xmlns="http://www.w3.org/2000/svg">
  <g transform="matrix(1 0 0 1 -345 -57 )">
    <path d="M 6.06250000683594 16.875  L 6.06250000683594 15.108375  C 3.27037501367187 14.8961874931641  1.0413125 12.667125  0.829124993164063 9.87500000683594  L 1.70718749316406 9.87500000683594  C 1.92812500683594 12.3280625068359  3.98962499316406 14.25  6.5 14.25  C 9.01037500683594 14.25  11.0718749931641 12.3280625068359  11.2928125068359 9.87500000683594  L 12.1708750068359 9.87500000683594  C 11.9586875 12.667125  9.72962500683594 14.8961875136719  6.93749999316406 15.108375  L 6.93749999316406 16.875  L 10.4375 16.875  L 10.4375 17.7500000068359  L 2.5625 17.7500000068359  L 2.5625 16.875  L 6.06250000683594 16.875  Z M 2.5625 4.18749999316406  C 2.5625 2.01287879070531  4.32537879754125 0.249999993164062  6.5 0.249999993164062  C 8.67462120245875 0.249999993164062  10.4375 2.01287879070531  10.4375 4.18749999316406  L 10.4375 9.43749999316406  C 10.4375 11.6121211956228  8.67462120245875 13.3749999931641  6.5 13.3749999931641  C 4.32537879754125 13.3749999931641  2.5625 11.6121211956228  2.5625 9.43749999316406  L 2.5625 4.18749999316406  Z M 6.5 1.125  C 4.80862795741858 1.125  3.43750000683594 2.49612795058264  3.43750000683594 4.18749999316406  L 3.43750000683594 9.43749999316406  C 3.43750000683594 11.1288720357455  4.80862795741858 12.4999999863281  6.5 12.4999999863281  C 8.19137204258142 12.4999999863281  9.56249999316406 11.1288720357455  9.56249999316406 9.43749999316406  L 9.56249999316406 4.18749999316406  C 9.56249999316406 2.49612795058264  8.19137204258142 1.125  6.5 1.125  Z " fill-rule="nonzero" fill="#f2f2f2" stroke="none" transform="matrix(1 0 0 1 345 57 )" />
  </g>
</svg>