<?xml version="1.0" encoding="utf-8"?>
<svg version="1.1" xmlns:xlink="http://www.w3.org/1999/xlink" width="64px" height="22px" xmlns="http://www.w3.org/2000/svg">
  <defs>
    <mask fill="white" id="clip135">
      <path d="M 12.5714285714286 22  C 5.53142857142859 22  0 17.16  0 11  C 0 4.83999999999997  5.53142857142859 0  12.5714285714286 0  L 19.7222222222223 0  L 26.0952380952382 0  L 32.2222222222223 0  L 48.8888888888889 0  L 51.4285714285714 0  C 58.4685714285714 0  64 4.83999999999997  64 11  C 64 17.16  58.4685714285714 22  51.4285714285714 22  L 12.5714285714286 22  Z " fill-rule="evenodd" />
    </mask>
  </defs>
  <g transform="matrix(1 0 0 1 -294 -352 )">
    <path d="M 12.5714285714286 22  C 5.53142857142859 22  0 17.16  0 11  C 0 4.83999999999997  5.53142857142859 0  12.5714285714286 0  L 19.7222222222223 0  L 26.0952380952382 0  L 32.2222222222223 0  L 48.8888888888889 0  L 51.4285714285714 0  C 58.4685714285714 0  64 4.83999999999997  64 11  C 64 17.16  58.4685714285714 22  51.4285714285714 22  L 12.5714285714286 22  Z " fill-rule="nonzero" fill="#ffffff" stroke="none" fill-opacity="0" transform="matrix(1 0 0 1 294 352 )" />
    <path d="M 12.5714285714286 22  C 5.53142857142859 22  0 17.16  0 11  C 0 4.83999999999997  5.53142857142859 0  12.5714285714286 0  L 19.7222222222223 0  L 26.0952380952382 0  L 32.2222222222223 0  L 48.8888888888889 0  L 51.4285714285714 0  C 58.4685714285714 0  64 4.83999999999997  64 11  C 64 17.16  58.4685714285714 22  51.4285714285714 22  L 12.5714285714286 22  Z " stroke-width="2" stroke="#ffffff" fill="none" transform="matrix(1 0 0 1 294 352 )" mask="url(#clip135)" />
  </g>
</svg>