<?xml version="1.0" encoding="utf-8"?>
<svg version="1.1" xmlns:xlink="http://www.w3.org/1999/xlink" width="5px" height="10px" xmlns="http://www.w3.org/2000/svg">
  <g transform="matrix(1 0 0 1 -343 -423 )">
    <path d="M 4.01434426229508 5.01341808461335  L 0.134562836193647 0.669138423596398  C 0.00551975842136082 0.523716125076009  0.0092730230492706 0.29926863630021  0.143101098232582 0.158545203257416  C 0.204681855595543 0.0942236609146026  0.288583439428844 0.0580327669040084  0.376119730005704 0.0580327669040084  C 0.468562153974354 0.0580327669040084  0.556709119900499 0.0983801340455631  0.618852459016394 0.169138423596398  L 4.98019126216701 5.01377118644068  L 0.618852459016394 9.8576977456303  C 0.556764845095796 9.92854909318211  0.468602078628831 9.96896369185112  0.376130424022747 9.96896369185112  C 0.288560347866595 9.96896369185112  0.20463709707859 9.93270738637092  0.143101098232582 9.86829096596928  C 0.00990437692110402 9.7305791015625  0.00307377049180281 9.50459040651483  0.134562836193647 9.3576977456303  L 4.01434426229508 5.01341808461335  Z " fill-rule="nonzero" fill="#ffffff" stroke="none" transform="matrix(1 0 0 1 343 423 )" />
  </g>
</svg>