<?xml version="1.0" encoding="utf-8"?>
<svg version="1.1" xmlns:xlink="http://www.w3.org/1999/xlink" width="104px" height="105px" xmlns="http://www.w3.org/2000/svg">
  <defs>
    <mask fill="white" id="clip136">
      <path d="M 32 567  C 20.9 567  12 558.1  12 547  L 12 482  C 12 470.9  20.9 462  32 462  L 96 462  C 107.1 462  116 470.9  116 482  L 116 547  C 116 558.1  107.1 567  96 567  " fill-rule="evenodd" />
    </mask>
  </defs>
  <g transform="matrix(1 0 0 1 -12 -462 )">
    <path d="M 12 462  L 116 462  L 116 567  L 12 567  L 12 462  " fill-rule="nonzero" fill="#cccccc" stroke="none" mask="url(#clip136)" />
    <path d="M 19 469  L 109 469  L 109 560  L 19 560  L 19 469  " fill-rule="nonzero" fill="#ffffff" stroke="none" mask="url(#clip136)" />
    <path d="M 73.88 493.35  C 69.512 493.35  66.08 489.918  66.08 485.55  C 66.08 481.182  69.512 477.75  73.88 477.75  C 78.248 477.75  81.68 481.182  81.68 485.55  C 81.68 489.918  78.248 493.35  73.88 493.35  " fill-rule="nonzero" fill="#cccccc" stroke="none" mask="url(#clip136)" />
    <path d="M 22 558  L 22 510.7  L 43.25 489.2  L 73 506.4  L 90 502.1  L 107 506.4  L 107 558  L 22 558  " fill-rule="nonzero" fill="#169bd5" stroke="none" mask="url(#clip136)" />
  </g>
</svg>