<?xml version="1.0" encoding="utf-8"?>
<svg version="1.1" xmlns:xlink="http://www.w3.org/1999/xlink" width="23px" height="22px" xmlns="http://www.w3.org/2000/svg">
  <g transform="matrix(1 0 0 1 -22 -60 )">
    <path d="M 0.0449218750000017 21.2306547619048  C 0.0449218750000017 20.8060825892857  0.352040816326531 20.4633556547619  0.732501594387757 20.4633556547619  L 22.2766661352041 20.4633556547619  C 22.6571269132653 20.4633556547619  22.9642458545918 20.8060825892857  22.9642458545918 21.2306547619048  C 22.9642458545918 21.6552269345238  22.6571269132653 21.9979538690476  22.2766661352041 22  L 0.732501594387757 22  C 0.352040816326531 21.9979538690476  0.0449218750000017 21.6552269345238  0.0449218750000017 21.2306547619048  Z M 22.9642458545918 11.0511532738095  C 22.9642458545918 11.4757254464286  22.6571269132653 11.8184523809524  22.2766661352041 11.8184523809524  L 0.732501594387757 11.8184523809524  C 0.352040816326531 11.8184523809524  0.0449218750000017 11.4757254464286  0.0449218750000017 11.0511532738095  C 0.0449218750000017 10.6265811011905  0.352040816326531 10.2838541666667  0.732501594387757 10.2838541666667  L 22.2766661352041 10.2838541666667  C 22.6571269132653 10.2838541666667  22.9642458545918 10.6265811011905  22.9642458545918 11.0511532738095  Z M 13.7965162627551 0.769345238095239  C 13.7965162627551 1.19391741071429  13.4893973214286 1.5366443452381  13.1089365433673 1.5366443452381  L 0.732501594387757 1.5366443452381  C 0.352040816326531 1.5366443452381  0.0449218750000017 1.19391741071429  0.0449218750000017 0.769345238095239  C 0.0449218750000017 0.34477306547619  0.352040816326531 0.00204613095238049  0.732501594387757 0  L 13.1089365433673 0  C 13.4893973214286 0.00204613095238049  13.7965162627551 0.34477306547619  13.7965162627551 0.769345238095239  Z " fill-rule="nonzero" fill="#ffffff" stroke="none" transform="matrix(1 0 0 1 22 60 )" />
  </g>
</svg>