<?xml version="1.0" encoding="utf-8"?>
<svg version="1.1" xmlns:xlink="http://www.w3.org/1999/xlink" width="21px" height="20px" xmlns="http://www.w3.org/2000/svg">
  <g transform="matrix(1 0 0 1 -12 -653 )">
    <path d="M 20.4574571590342 7.74211247096901  C 21.6282814453125 10.9842066037749  20.7757818245096 14.6810917901715  17.8999583184425 17.2556385613062  C 15.8570116636885 19.0845622287703  13.1774156779837 20  10.5 20  C 7.82258432201629 20  5.14298833631151 19.0845622287703  3.10004168155751 17.2556385613062  C -0.985851627950469 13.5958393318514  -0.985851627950469 7.66403674850106  3.10004168155751 4.00618941357282  C 5.1429883363115 2.17726574610869  7.82258432201629 1.26182797487899  10.5 1.26182797487899  C 12.7391741969332 1.26182797487899  14.9783483720495 1.90204885224119  16.8468705618351 3.18053871243906  C 16.9624267837849 3.25861443490702  17.128130017869 3.18639439601869  17.128130017869 3.05756945492313  L 17.128130017869 1.54485244685266  C 17.128130017869 1.21303065077792  17.2742105042803 0.894872096857735  17.5358472344581 0.66064494898513  L 18.2248239070811 0.0457986809367239  C 18.3338392058677 -0.0517959672654023  18.5235258248836 0.0165202825698363  18.5235258030668 0.157056571293399  L 18.5235258030668 4.38485663922207  C 18.5235258030668 5.07387484068534  17.8977780107214 5.63406810105306  17.128130017869 5.63406810105306  L 12.4252101250831 5.63406810105306  C 12.2704084077876 5.63406810105306  12.1919173952793 5.46620530848914  12.3009326940658 5.36665878529173  L 12.9899093666888 4.74986062271678  C 13.2515460750499 4.51563347484417  13.6069359499668 4.38485663922207  13.9775879571144 4.38485663922207  L 15.7937827834109 4.38485663922207  C 15.9616663470329 4.38485663922207  16.033616436378 4.1935711318709  15.8984374667553 4.10378406177494  C 15.2879518066406 3.69779033228534  14.6251388048537 3.36401664168407  13.9143590768368 3.1063667790242  C 12.826386418509 2.71208441669385  11.6795455171626 2.51103943670997  10.5 2.51103943670997  C 9.32045448283743 2.51103943670997  8.17361358149102 2.71208441669385  7.08564092316323 3.1063667790242  C 5.96060305539395 3.51431240304034  4.95112143139129 4.11549540940295  4.08553996426197 4.89039691144034  C 3.21995851894947 5.66529839394649  2.54842428627826 6.56902481754819  2.09274034345911 7.57620157293164  C 1.6523185546875 8.54824424636859  1.42992734167221 9.57493990795497  1.42992734167221 10.6309139874395  C 1.42992734167221 11.686888066924  1.65449886240858 12.7135837285104  2.09492065118019 13.6875782964739  C 2.55060459399934 14.6947550518573  3.21995851894947 15.5984814559278  4.08772027198305 16.3733829579652  C 4.95330171729555 17.1482844404713  5.96278336311503 17.7494674663652  7.08782123088431 18.1574130903813  C 8.17361358149102 18.5516954527117  9.32045448283743 18.750788538169  10.5 18.750788538169  C 11.6795455171626 18.750788538169  12.826386418509 18.5497435581851  13.9143590768368 18.1554611958548  C 15.0393969446061 17.7475155718386  16.0488785686087 17.1482844404713  16.914460035738 16.3714310634386  C 17.7800414810505 15.5965295809325  18.4515757137217 14.6928031573308  18.9072596565409 13.6856264019473  C 19.3455011375914 12.7135837285104  19.5700726583278 11.6868880473928  19.5700726583278 10.6309139874395  C 19.5700726583278 9.57493992748622  19.3455011375914 8.54824424636859  18.9050793488198 7.5742496784051  C 18.8331292594747 7.41614635847391  18.7568185546875 7.259994913538  18.673966926737 7.10579536312864  C 18.6172789696227 7.00234503134688  18.7023109052942 6.88327956288404  18.8309489517537 6.88327958241529  L 19.1318311554604 6.88327958241529  C 19.7335955846908 6.88327958241529  20.2721311554604 7.22876462064457  20.4574571590342 7.74211247096901  Z " fill-rule="nonzero" fill="#ffffff" stroke="none" transform="matrix(1 0 0 1 12 653 )" />
  </g>
</svg>