<?xml version="1.0" encoding="utf-8"?>
<svg version="1.1" xmlns:xlink="http://www.w3.org/1999/xlink" width="51px" height="55px" xmlns="http://www.w3.org/2000/svg">
  <defs>
    <mask fill="white" id="clip138">
      <path d="M 0 27.5  C 0 12.1  11.22 0  25.5 0  C 38.7210648854876 0  49.3191322213613 10.3719837746172  50.8182317372342 24.1320618165719  C 50.9383014238484 25.2341689420766  51 26.3580111510161  51 27.5  C 51 42.9  39.78 55  25.5 55  C 11.22 55  0 42.9  0 27.5  Z " fill-rule="evenodd" />
    </mask>
  </defs>
  <g transform="matrix(1 0 0 1 -166 -548 )">
    <path d="M 0 27.5  C 0 12.1  11.22 0  25.5 0  C 38.7210648854876 0  49.3191322213613 10.3719837746172  50.8182317372342 24.1320618165719  C 50.9383014238484 25.2341689420766  51 26.3580111510161  51 27.5  C 51 42.9  39.78 55  25.5 55  C 11.22 55  0 42.9  0 27.5  Z " fill-rule="nonzero" fill="#ffffff" stroke="none" transform="matrix(1 0 0 1 166 548 )" />
    <path d="M 0 27.5  C 0 12.1  11.22 0  25.5 0  C 38.7210648854876 0  49.3191322213613 10.3719837746172  50.8182317372342 24.1320618165719  C 50.9383014238484 25.2341689420766  51 26.3580111510161  51 27.5  C 51 42.9  39.78 55  25.5 55  C 11.22 55  0 42.9  0 27.5  Z " stroke-width="2" stroke="#ffffff" fill="none" transform="matrix(1 0 0 1 166 548 )" mask="url(#clip138)" />
  </g>
</svg>